<svg xmlns="http://www.w3.org/2000/svg" width="512" height="512"><path d="M510.648 496.979L332 189.307V100h120c5.523 0 10-4.477 10-10V10c0-5.523-4.477-10-10-10H322c-5.523 0-10 4.477-10 10v88.786l-21.436 29.893c-3.219 4.488-2.189 10.736 2.299 13.954a9.951 9.951 0 0 0 5.819 1.875 9.99 9.99 0 0 0 8.135-4.173l5.183-7.228v56.029l-78.993 126.527-66.9-51.581a10.005 10.005 0 0 0-7.778-1.94 10.005 10.005 0 0 0-6.704 4.397l-150 230A10 10 0 0 0 10.001 512H502a10.002 10.002 0 0 0 8.648-15.021zM332 20h110v60H332V20zM28.462 492l134.004-205.473L222.61 332.9l-31.47 55.14a9.92 9.92 0 0 0-.97 7.59 9.938 9.938 0 0 0 4.69 6.05c1.51.86 3.22 1.32 4.95 1.32a10 10 0 0 0 8.69-5.05l35.433-62.058c.063-.093 77.391-123.926 77.391-123.926.224.015.448.034.676.034l.048-.002L484.63 492H28.462z"/><path d="M184.941 419.05c-1.51-.86-3.22-1.32-4.95-1.32-3.58 0-6.91 1.93-8.69 5.04-2.73 4.79-1.06 10.91 3.73 13.65 1.51.86 3.22 1.31 4.95 1.31 3.58 0 6.91-1.93 8.69-5.04a9.922 9.922 0 0 0 .96-7.59 9.906 9.906 0 0 0-4.69-6.05zm22.948-162.414a10.002 10.002 0 0 0 15.88-.488l13.119-18.296c3.218-4.488 2.189-10.735-2.299-13.954-4.488-3.219-10.735-2.189-13.954 2.299l-5.498 7.667-15.413-18.925c-3.488-4.283-9.786-4.927-14.069-1.439-4.282 3.488-4.927 9.787-1.439 14.069l23.673 29.067zm38.355-48.99a9.951 9.951 0 0 0 5.819 1.875 9.99 9.99 0 0 0 8.135-4.173l23.31-32.507c3.218-4.488 2.189-10.735-2.299-13.954-4.488-3.218-10.736-2.191-13.954 2.299l-23.31 32.506c-3.218 4.488-2.188 10.735 2.299 13.954zm-107.752 7.333a9.952 9.952 0 0 0 5.454 1.625 9.99 9.99 0 0 0 8.385-4.538l8.815-13.516c3.556 2.383 8.39 2.286 11.88-.558 4.282-3.488 4.926-9.787 1.439-14.069l-6.71-8.239a9.998 9.998 0 0 0-16.13.852l-16.046 24.604c-3.017 4.627-1.713 10.822 2.913 13.839zm-43.701 67.01a9.952 9.952 0 0 0 5.454 1.625 9.993 9.993 0 0 0 8.385-4.538l21.851-33.504c3.017-4.626 1.713-10.822-2.913-13.839-4.628-3.018-10.822-1.713-13.839 2.913L91.877 268.15c-3.017 4.626-1.712 10.822 2.914 13.839zM4.538 420.376a9.952 9.952 0 0 0 5.454 1.625 9.993 9.993 0 0 0 8.385-4.538l13.775-21.122c3.017-4.626 1.713-10.822-2.913-13.839-4.626-3.018-10.823-1.712-13.839 2.913L1.625 406.537c-3.017 4.626-1.713 10.822 2.913 13.839zm35.626-54.626a9.952 9.952 0 0 0 5.454 1.625 9.99 9.99 0 0 0 8.385-4.538l21.851-33.504c3.017-4.626 1.713-10.822-2.913-13.839-4.627-3.018-10.822-1.713-13.839 2.914l-21.851 33.504c-3.017 4.625-1.713 10.821 2.913 13.838z"/></svg>