<svg baseProfile="basic" xmlns="http://www.w3.org/2000/svg" viewBox="0 0 1000 1000"><ellipse fill="#240A40" cx="321.6" cy="498.9" rx="53.2" ry="27.4"/><g fill="#240A40"><path d="M861.3 594.5l9.9-154.2-72.8 8.4-42.3 4.7.5-.6-86 10 .4-.4L544.4 477l-433 48.3 44.5 53.6-10.1 158.4 40.6 38.5L318.9 761l208.9-23.3 62.6-7 155.5-17.3 178.6-19.9 6.8-106.9-70 7.9z"/><path d="M805.4 685.9l-549.7 62.3 21.4 25.7-3 48.6 18.2 17.1L817 780.3l2.6-41.8 2.2-34.7z"/></g><path d="M309.7 533.4l-1 .2 17.3-1.9-3.9 61.2-48.9 5.4 1-15.7-41.3 4.6-6.9 108.5 41.3-4.6 1.1-17.7L317 668l-4 63.3-116 12.9-20.1-19.1 9.9-156.2-16.4-19.8 139.3-15.7zm96.3-10.6l5.6-.6-5.6 88.7 52.7-5.9 5.6-88.7 47.5-5.3-12.7 199.5-47.5 5.3 4.1-64.5-52.7 5.9-4.1 64.5-47.5 5.3 11.3-177.9-16.3-19.6 17.7-2 10.7-1.2 31.4-3.6-.2.1zM592 502l-.1.2 5.6-.6L584.8 701l-47.5 5.3 11.3-177.9-16.3-19.6 17.7-2 10.7-1.2L592 502zm85.5-9.4l5.6-.6-9.8 153.9 70-7.8-2.9 45.6-117.5 13.1 11.3-177.9-16.3-19.6 17.7-2 10.7-1.2 31.4-3.6-.2.1zM833 475.3l5.6-.6-9.8 153.9 70-7.8-2.9 45.6-117.5 13.1 11.3-177.9-16.3-19.6 17.7-2 10.7-1.2 31.4-3.6-.2.1z" fill="#FFF"/><linearGradient id="a" gradientUnits="userSpaceOnUse" x1="246.876" y1="737.737" x2="246.876" y2="652.09"><stop offset="0" stop-color="#ff71ff"/><stop offset="1" stop-color="#2f6bff"/></linearGradient><path fill="url(#a)" d="M310.5 674.9l-3.3 50.8-108 12-15.9-15.1 4.2-66.5 35.1-4-3.2 50.5 53.7-5.9 1.2-17.8z"/><linearGradient id="b" gradientUnits="userSpaceOnUse" x1="428.352" y1="720.054" x2="428.352" y2="620.624"><stop offset="0" stop-color="#ff71ff"/><stop offset="1" stop-color="#2f6bff"/></linearGradient><path fill="url(#b)" d="M498.7 620.6l-5.3 84.4-35.2 3.9 4.2-64.6-65.2 7.3-4.1 64.5-35.1 4 5.3-84z"/><linearGradient id="c" gradientUnits="userSpaceOnUse" x1="564.07" y1="699.343" x2="564.07" y2="610.875"><stop offset="0" stop-color="#ff71ff"/><stop offset="1" stop-color="#2f6bff"/></linearGradient><path fill="url(#c)" d="M584.3 610.9l-5.4 84.5-35.1 3.9 5.4-84.4z"/><linearGradient id="d" gradientUnits="userSpaceOnUse" x1="682.998" y1="689.813" x2="682.998" y2="601.119"><stop offset="0" stop-color="#ff71ff"/><stop offset="1" stop-color="#2f6bff"/></linearGradient><path fill="url(#d)" d="M736.6 645l-2.1 33.1-105.1 11.7 5.4-84.7 35.1-4-3.3 51.7z"/><linearGradient id="e" gradientUnits="userSpaceOnUse" x1="838.546" y1="672.478" x2="838.546" y2="583.387"><stop offset="0" stop-color="#ff71ff"/><stop offset="1" stop-color="#2f6bff"/></linearGradient><path fill="url(#e)" d="M892.1 627.7l-2.1 33.1-105 11.7 5.4-85.1 35.1-4-3.3 52.1z"/><path d="M328.4 757.8l3.4-.4 5.2 5.6-.8 12.2-14.7 1.7.3-4.7-12.5 1.4-2 32.7 12.5-1.4.5-8.7-6.8.8.7-11.6 21.5-2.4-2.1 34.1-35 4-6.1-5.7 2.9-47.3-4.9-5.9 38.2-4.4h-.3zm70.9-8l26.3-3 5.3 5.6-3.3 54-14.4 1.6 1.2-19.5-15.9 1.8-1.2 19.5-14.4 1.6 3.3-53.8-4.9-5.9 5.3-.6 3.3-.4 9.4-.9zm0 26.6l15.9-1.8.8-12.8-15.9 1.8-.8 12.8zm117.8-39.9l32.8-3.7 5.3 5.6-3.3 54-14.4 1.6 2.9-46.3-16 1.8-2.9 46.3-14.4 1.6 2.9-46.3-16 1.8-2.9 46.3-14.3 1.6 3.3-53.7-5-6 5.4-.6 14.6-1.6 22.1-2.5-.1.1zm100.4-11.4l1.6-.1-3.7 60.3-14.4 1.6 3.3-53.7-4.9-5.9 5.3-.6 3.2-.4 9.6-1.2zm87.5-9.9l2.4-.3 5.3 5.6-3.3 54-14.4 1.6 2.9-46.3-15.9 1.8-2.9 46.3-14.4 1.6 3.3-53.7-4.9-5.9 5.3-.6 14.6-1.7 22.1-2.5-.1.1zm90-10.2l3.4-.4 5.2 5.6-.8 12.2-14.7 1.7.3-4.7-12.5 1.4-2 32.7 12.5-1.4.5-8.7-6.8.8.7-11.6 21.5-2.4-2.1 34.1-35 4-6.1-5.7 2.9-47.3-4.9-5.9 38.2-4.4h-.3z" fill="#FFF"/><ellipse fill="#240A40" cx="601.8" cy="423.6" rx="305.3" ry="64.8"/><path fill="#240A40" d="M680.4 419.4s5.9-17.6 63-19.7 110.3 16.5 125.6 75.1c0 0-30.2 67.9-9.6 98.6 20.6 30.6 69-49.3 78-73.6s19.4-82.6-18.7-166.8c-38-84.1-51.4-98.8-106.8-126.8-55.4-27.9-141.4-44.2-227.6-20.2s-119.5 46.4-119.5 46.4-.8-46.5 9.3-64.7c0 0-52.4 12.8-55.5 87.6 0 0-21 15.1-51.1 21.4-30.1 6.3-46.6 13.5-46.6 13.5s1.7-1.9-2.4-21.2-18.4-27.3-15.9-49.9c2.5-22.6 21.8-44.4 21.8-44.4s-48.1 3.8-60.4 43.6-1 51.9-2.3 60.2c-1.3 8.4-2.8 14.7-2.8 14.7s-16.6-7-22.9-29.6 21.5-62.4 21.5-62.4-29.9 4.7-49.2 31.9-12.8 63.1-9 74.6c3.8 11.5-1.4 38.8 7.5 57.7 0 0-10.5 4.5-15.6-20.7s-32.6-24-32.6-24 8.6 12.2 6.8 33.8c-1.8 21.6.2 59.3 33.8 75.9 0 0 3.8 39.9 45.2 35.3 0 0-11.7 16.6-31.6 25.1s-29.1 19-32 22.8c0 0 5.9 6.9 18.2 3.6 0 0-8.1 9.3-10.8 28.2 0 0 18.1-1.4 31.8-11.1 0 0-.7 7.8 5 19.7 0 0 17.9-10.7 28.1-27.6 10.2-17 12.7-13.1 19.5-5.3 6.8 7.9 9.7 9 9.7 9s7-4.1 6.8-18.1c-.1-14-5-13.5-4.5-18.3.5-4.8 6.2-9 6.2-9s45.4 22.9 119 8.9c0 0 38.8 4.1 74.2-7.6 0 0 9.9 7.5 5.4 18.8s-7.3 16.8-5.6 30.3l6.3-3.3s-2.9 14.1 7.5 31c0 0 4.6-5.2 7.4-12.3s9.1-16.8 9.1-16.8 9.3 15.2 3.6 29.7c0 0 11.7-.3 14.9-8.1s2.1-7.5 5.1-14c2.9-6.5 3.1-7.3 3.1-7.3s15.9 11.5 20 17.2c0 0 5.4-8.4 4-16-1.4-7.5-.9-10.3-6.6-16.8-5.7-6.5-7.3-12-7.4-22.8 0-10.7 4.8-38.7-2.1-45.5l27.2-17.8s12.5 4 25.6-.6c0 0 9.9 4.9 21.1.2l5.5-.8s8.7 27.1 10 31.8c1.3 4.8-17.6 16.2-24.5 29.4-6.8 13.2-5 17.5-5 17.5l23.9-9.3s-3.7 11.1-1.7 24.4c0 0 18.6-2.2 30.6-16.8 0 0 5.1 15.8 18.5 24.5 0 0 10.4-12.6 10.5-29 0 0 9.5 11.1 34.6 16.2 0 0 4.6-13.4-2.7-28 0 0 14.9 1.1 27.6-10.6 0 0-8.3-10.9-22.8-18.1s-40.4-19.8-46.7-43.7z"/><linearGradient id="f" gradientUnits="userSpaceOnUse" x1="206.828" y1="340.596" x2="547.068" y2="340.596"><stop offset="0" stop-color="#ff71ff"/><stop offset="1" stop-color="#2f6bff"/></linearGradient><path fill="url(#f)" d="M545.4 344.5s-.1 0 0 0c-.2 0-.4-.1-.5-.1-5.5-.9-20.2-1.9-36.1 7.2-20.1 11.6-36.9 27.6-61.6 22.7 0 0 1.1-.1 3.1-.6.7-.2 1.6-.4 2.5-.7 7.6-2.4 21.9-9.1 35.5-27.4 19.8-26.7 14.4-54.2 15.6-70.1 1.1-14.5 17.1-40 20.1-44.6.3-.5.5-.7.5-.7h-.1c-1.6.1-30.9 3.3-43.6 46.3-8.5 28.6-25.6 48.6-36.6 59.1-5.8 5.5-9.9 8.5-10.2 8.7.2-.2 1.9-2 4.3-5.2 8.1-10.4 24.1-35.2 20.3-64.1-5-37.8-9.2-50.2-3.6-81.1.1-.4.1-.8.2-1.2 0 0-2.8 1.5-6.5 7.8-5.3 9-12.3 27.8-15.6 66-5.5 64.9-46.5 43.9-64.6 45.3-13 1.1-33.9 6.2-44.4 9-3.4.9-5.7 1.6-6.4 1.7-.1 0-.2 0-.2.1.1-.1 1.4-.9 3.5-2.2 8.8-5.3 32.9-18.3 56.5-18.5 29.6-.2 38.5-23.8 38.5-23.8s-24.6 10.7-57 15.8c-31.8 4.9-90.3 30.2-129.2 73.3-.6.7-1.2 1.3-1.8 2-.1.1-.2.3-.3.4l.1.1c.5.6 3 4 4.5 8.9 1.7 5.3 3.7 12.4 11.4 11.6.3 0 .6-.1.9-.1 0 0-.1.2-.4.5v.1c-.7.8-2.1 2.1-4.4 3.1-.7.3-1.6.6-2.5.8 0 0-8.7 6.8-16.7 1.3-7.8-5.3-4.9-11.3-4.8-11.6-.1.2-2.6 2.9-4.9 6.8-.7 1.2-1.4 2.5-2.1 3.9-1.3 2.9-2.2 6.1-2 9.1.5 9.1 2.8 23.2 8.9 22.2 6.1-1.1 11.6-4.3 22.8-2.8 11.2 1.5 19.8-3.1 42.6-1.4 22.9 1.7 30.9-5.1 38.5-7 .7-.2 1.5-.3 2.4-.4 7.7-.9 18.9 1.4 27.7 1.3 9.6-.1 43.9-15.9 44.9-16.4-.7.5-15.7 11.1-27.7 17-3.9 1.9-7.4 3.3-10.1 3.8-11.1 2-24.3-3.5-37.7 1.2s-24.5 7.7-35.5 6.7c-11-.9-26.6-.2-38.3 1.9-11.8 2.1-16.1-1.9-22.1 0-5.9 1.9-6.3 5.6-3.9 10.7 2.4 5 13 19.8 44.7 11.8.4-.1.9-.2 1.3-.3 32.8-8.7 33.9-10 48.4-11.6 14.5-1.6 23.7-3.4 35.3-6.4 11.5-3 44.8-21.1 45.4-21.4-.3.4-9.4 11.6-26.7 20.7-2.5 1.3-5.1 2.5-7.9 3.7-22.9 9.5-31.2 29.5-12.2 35.9 0 0-10.5 4.1-28.4-3.2-17.9-7.4-16.2 11.9 4.6 14.7 19.4 2.5 62.1 3.5 68 3.7-3-.1-15.2-1.2-27.2-11.9.4.1 7.3 1.8 16.8 1.5 0 0-3.6-1-5.5-8.4l-8.9 1.4s53.8-15.4 44.5-48.1v-.2s.1 0 .3.1c.7.1 2.7.4 5.6.7 4.2.4 10.2.8 17.2.7 13-.3 29.2-2.6 42.1-10.6 25.9-16.1 28.6-36.3 45.6-51.7 17-15.4 24.6-17 24.6-17s-.4-.3-1.5-.5zm-194.5 48c.1-.3 1-4.3-.3-10.6 0 0-2.3 14-15.1 17.4-.8.2-1.6.4-2.4.5-12.2 1.4-25.3-9.3-25.3-9.3s-13.7 1-19.6-6.6c0 0 1.4 1.1 4 1.5 3.4.6 8.9-.1 16.1-5.9 12.7-10.3 37.4-22.8 41.9-22.4 4.5.4 13.9 10.3 13.9 10.3s-6.9-.3-12.5-.9c-.2-.1 6.8 15.3-.7 26z"/><linearGradient id="g" gradientUnits="userSpaceOnUse" x1="270.358" y1="255.67" x2="306.473" y2="255.67"><stop offset="0" stop-color="#3e64ff"/><stop offset=".449" stop-color="#5430dc"/><stop offset=".804" stop-color="#620dc6"/><stop offset=".995" stop-color="#6800bd"/></linearGradient><path fill="url(#g)" d="M306.5 299.5c-6.3 2.4-12.3 5-18 7.6-2 .9-3.9 1.8-5.8 2.8-2.7 1.3-5.3 2.7-7.9 4.1-.6-1.1-1-2.1-1.3-3.2-2.9-12.1-.9-15.6 1.6-29.3 2.5-13.7-7.4-10.5-4.1-42 2-18.7 11.6-30.1 19.1-36.2 5.1-4.2 9.2-5.9 9.2-5.9 0 .1-.1.1-.1.2-15.1 20.6-11.9 33.6-11.9 33.6 1.6 13.5 20.7 36.2 16.5 48.6-4.1 12.4-1.7 17-1.7 17s2 .9 4.4 2.7z"/><linearGradient id="h" gradientUnits="userSpaceOnUse" x1="205.326" y1="292.106" x2="257.802" y2="292.106"><stop offset="0" stop-color="#3e64ff"/><stop offset=".449" stop-color="#5430dc"/><stop offset=".804" stop-color="#620dc6"/><stop offset=".995" stop-color="#6800bd"/></linearGradient><path fill="url(#h)" d="M257.8 324.1c-6.7 4.5-12.8 9.1-18.1 13.7-4.6 3.9-8.7 7.8-12.4 11.7-3.2 3.3-6 6.7-8.6 9.9-1.8-6-4.8-18.3-4.4-35.2.6-24.5-8.1-17.7-9-50.1-.4-15.9 6.4-28.1 13.5-36.4 7.1-8.3 14.4-12.7 15-13-14.8 30.7-14.6 51.7-2.5 65.6 12.1 13.9 19.2 18.7 24.4 28.3.9 1.7 1.6 3.5 2.1 5.5z"/><linearGradient id="i" gradientUnits="userSpaceOnUse" x1="175.023" y1="373.202" x2="204.981" y2="373.202"><stop offset="0" stop-color="#3e64ff"/><stop offset=".449" stop-color="#5430dc"/><stop offset=".804" stop-color="#620dc6"/><stop offset=".995" stop-color="#6800bd"/></linearGradient><path fill="url(#i)" d="M205 380.7c-1.6 3.1-3 6.1-4.1 9-1.6 3.9-2.8 7.5-3.8 10.7-.8 2.8-1.4 5.4-1.9 7.6-3.4-2.2-6.7-4.8-9.6-7.6-9.4-9-10.1-21-8.6-38.4.6-6.9.4-12.1-.1-15.8-.5-4.1-1.3-6.5-1.7-7.4-.1-.3-.2-.5-.2-.5.3.2 6.8 6.1 9.9 20.8 3.1 14.7 12.6 15.6 20.1 21.6z"/><linearGradient id="j" gradientUnits="userSpaceOnUse" x1="193.765" y1="502.503" x2="281.883" y2="502.503"><stop offset="0" stop-color="#3e64ff"/><stop offset=".449" stop-color="#5430dc"/><stop offset=".804" stop-color="#620dc6"/><stop offset=".995" stop-color="#6800bd"/></linearGradient><path fill="url(#j)" d="M280 516s-8.4-10.5-11.6-13.6c-3.3-3-12.2-3.4-20.6 12.2-8.4 15.6-18.7 23.9-18.7 23.9 1.7-11.4 8.2-29.9 8.4-30.5-12.2 12.4-39.1 27.5-39.1 27.5 3.8-10.2 21.2-29.8 21.2-29.8-8.4 3.9-25.8 5.3-25.8 5.3s23-12.3 35.8-21c12.8-8.8 32.5-23.6 32.5-23.6 1.5 1.5 3.7 3.2 6.2 5 6.1 4.5 13.4 9 13.4 9-5.5 4.7-8 13.2-2.5 22.3 1.5 2.5 2.2 4.5 2.5 6.3.8 4.8-1.7 7-1.7 7z"/><linearGradient id="k" gradientUnits="userSpaceOnUse" x1="404.378" y1="493.725" x2="558.239" y2="493.725"><stop offset="0" stop-color="#ff71ff"/><stop offset="1" stop-color="#2f6bff"/></linearGradient><path fill="url(#k)" d="M547.5 531.1c-6-5.6-11.1-7.9-12.5-8.4 0 0 1.5 2.8.1 9.4-1.4 6.6-5.2 12.6-6.5 16.8-1.2 3.9-4.1 5.8-4.4 6 .3-.3 2.5-3 0-13.3-2.7-11-2.3-8.4-4.6-15.1s-4.7-8.8-4.7-8.8-1 4.8-5.6 11-9.7 12.6-10.8 19.1c0 0-3.3-6.3 1-18.4 4.4-12.2 4.9-14.2 4.9-14.2s-8.4 4.2-12.9 10.7c0 0-.7-6 4.7-12 5.2-5.8 9-8.6 9.2-8.7l-4.6 1.6s.1-.8.3-2c.6-4.7 1.6-16.4-1.8-23.3 0 0 7.7-1.4 16.1-7.6 1.7-1.2 3.3-2.6 5-4.3-.1.1-1.1.7-2.8 1.7-4.5 2.4-14 6.6-24.9 6.1 0 0-5.8-4.8-13.5-4.4l9.1-6.1c-.5.1-13.3 3-23.6 6.1-10.5 3.2-22.7 0-22.7 0l4-3.9s-16.4 4.6-29.8-1c-13.4-5.5-12-7.8-12-7.8s18.7-6.3 30.5-22.8c0 0 .2 0 .5.1 3.5.3 23.1 1.8 39.5-4.5 0 0 12.1-1.3 20.8 4 8.7 5.4 15.2 4.6 24.7 8.1 9.4 3.4 15.3 6.9 16.6 12 1.3 5.1-2 27.5-.1 39.9s9.7 18.4 14.4 25.7 6.8 16.8 6.8 16.8-4.4-2.9-10.4-8.5z"/><linearGradient id="l" gradientUnits="userSpaceOnUse" x1="866.017" y1="457.35" x2="933.12" y2="457.35"><stop offset="0" stop-color="#ff71ff"/><stop offset="1" stop-color="#2f6bff"/></linearGradient><path fill="url(#l)" d="M895.1 542.9c-2 2.4-3.9 4.6-5.8 6.5-5.9 6.2-10.8 10.1-13.6 10.7-11.1 2.5-15.6-.3 2-52.8 17.2-51.5 33.3-65 34.9-148.4 0-1.6.1-3.3.1-5 0 0 .4 1 1.2 2.8 4.3 10.5 19.2 49.8 19.1 94.3.1 35.2-20.8 71.3-37.9 91.9z"/><linearGradient id="m" gradientUnits="userSpaceOnUse" x1="692.449" y1="515.487" x2="692.449" y2="188.516"><stop offset="0" stop-color="#ff71ff"/><stop offset="1" stop-color="#2f6bff"/></linearGradient><path fill="url(#m)" d="M896.5 358.1c-.1.3-.1.5-.1.5-.3-.4-.7-.9-1-1.3-1.2-1.4-2.4-2.9-3.6-4.3-.5-.6-1-1.1-1.5-1.7-119.1-133.3-337.1-73.7-340.7-72.8 57.7-10.5 108-10.5 150.7-4.7 6.7.9 13.1 1.9 19.4 3.1 60.2 11.2 103.7 33.7 129.7 52.4 12.5 8.9 21 17 25.4 22.5.4.5.8 1.1 1.2 1.6 19.3 25.3 13.6 52.8 13.6 52.8-32.4-39.4-76.2-47.3-102.6-48.1-14-.4-23.1 1.2-23.1 1.2 54.9-4.1 115.9 32.6 121.5 55.9 5.6 23.2-8.1 41.6-8.1 41.6s-16.1-54.8-83.7-67.5c-67.2-12.5-123.6 10.6-124.3 10.8 18.3-36.6 74.2-50.4 74.2-50.4-45.5 5.6-70.1 25.6-70.1 25.6 2.1-7.2-.1-14-.1-14s-1.4 6.6-16.7 17.9c-15.3 11.3-40.1 2.4-49.5-7.7-5-5.4-6-13.3-5.9-19.4.1-5.2 1.1-9.1 1.1-9.1-11.6 36.2 7.9 46.7 8.4 46.9l-2.6-7.2c6.3 6.2 18.2 12.4 29.8 17 11.7 4.7 13.7 7 24 21.5s17.7 29.1 30.4 36.5c12.7 7.5 42.8 22.2 42.8 22.2-16.3 2.3-34.4-2.8-34.4-2.8 12 12.9 16.9 28.9 16.9 28.9-23.5-8.7-37.3-29.3-37.3-29.3 4.5 14.8-2.6 38.7-2.6 38.7-9.8-15.6-11.9-33.4-11.9-33.4-12.6 23.2-27.6 31.9-27.6 31.9 3.2-21.3 7.7-27.2 8-27.6-10.8 7.2-26 10.8-26 10.8 2.8-4.8 7.2-9.2 11.8-13.1 9.3-7.8 19.6-13 19.6-13l-11.8-43.3 4.8-3.5 1.2-.9s-3.7 0-8.9-.1c-12.4-.2-33.6-.8-36.6-2.7-4.2-2.7-.4-5.1-.4-5.1 10.7 3.2 21.4-2.1 21.4-2.1-24.9-1.3-38.4-25.3-38.4-25.3.6 9.9-4 17.8-4 17.8-.3-20.7-10.3-29-10.3-29 7.8 31.2-8.9 43.3-8.9 43.3 5.8-32.2-10-48-10.5-48.4 10.5 26.9-2.8 43-2.8 43 3.6-23-9.4-36.3-9.7-36.7 10.3 25.3-5.6 42.5-5.6 42.5 2.1-15.6-6.6-27.9-6.6-27.9 4.1 38-19.5 36.8-19.5 36.8 5.3-7.3 6-17.9 6-17.9-6.4 20.7-24.5 13.5-24.5 13.5 11.5-7.7 30.9-36.5 44.6-55.1 1.2-1.6 2.5-3.1 3.8-4.6 14.5-15.4 37.7-22 37.7-22-1.1-.6-2.3-1.2-3.4-1.8-22.4-10.9-47.7-6.3-56.2-4.3-1.8.4-2.9.8-3 .8 62.1-56.4 161.7-52.9 163.8-52.8-12.4-1.4-24.1-2.1-35-2.2-32.3-.3-58.1 4.7-77.6 10.9-2.7.8-5.2 1.7-7.6 2.6h-.1c-22.9 8.4-35.6 18-38.9 20.7-.1.1-.2.2-.3.2-.2.2-.4.3-.5.4h-.1s.8-6.5 2-16.3c.3-2.6.7-5.5 1-8.6.7-6.3 1.5-13.3 2.3-20.6 2.5-24.2 25.4-52.9 25.4-52.9l-21.7.5s148.1-65.7 273.4-7.6c119.7 55.9 102.2 138.8 100.4 145.8z"/><path fill="#FFF" d="M340.5 377.7c0 3.2-1.4 6.3-3.7 8.5-.7.6-1.4 1.2-2.2 1.6-1.7.8-3.7.7-5.7.7-3.8-.1-7.5-.3-11.3-.4 3.1 2.1 6.4 3.9 9.8 5.3 1.5.6 3.1 1.2 4.8 1.3 2.2 0 4.2-.8 6.2-1.8 1.2-.6 2.3-1.1 3.3-2 2.2-1.9 3.2-4.8 3.6-7.6.8-5.1-.3-10.8-4.1-14.4-1.8-1.7-4.7-.4-3.3 2 1.4 2.1 2.6 4.1 2.6 6.8z"/><path fill="#FFF" d="M325.2 376c1-.6 2-1.3 2.9-2.1.7-.6 1.5-1.4 2.3-1.8s2-.5 2.8.1c.6.4.9 1.2.9 1.9s-.3 1.4-.6 2c-.7 1.2-1.8 2.1-3 2.5-2.2.7-5.1-.4-6.8-1.9.4-.3 1.1-.4 1.5-.7zm-99 14.7c-1-.3-1.9-1.1-2.3-2-.4-1-.4-2.1.2-3-1 1.5-1.4 3.4-.8 5.2.5 1.7 2.1 3.1 3.9 3.3 1.5.1 3-.6 4.4-1.3.5-.3 1.1-.7.9-1.2-.6-2.1-5.1-.6-6.3-1z"/><path fill="#FFF" d="M226.7 384c-.6.2-.9.9-.9 1.6-.1 1 .5 2.1 1.4 2.2.3.1.6 0 .8-.2.2-.2.3-.6.3-.9 0-.3 0-.8-.3-.9h-.4c-.4 0-.6-.3-.7-.7-.2-.4-.1-.8-.2-1.1-.1 0-.4.2-.4.4l.4-.4z"/><linearGradient id="n" gradientUnits="userSpaceOnUse" x1="393.853" y1="273.178" x2="459.247" y2="273.178"><stop offset="0" stop-color="#3e64ff"/><stop offset=".289" stop-color="#4247d1"/><stop offset=".605" stop-color="#452ba5"/><stop offset=".851" stop-color="#47198a"/><stop offset=".995" stop-color="#481380"/></linearGradient><path fill="url(#n)" d="M433.8 344.4c-12.7 9.1-24.3 8.6-39.9 7.3 17-5.8 31.5-18.4 39.7-34.4 13.1-25.8 9.2-56.5 12.4-85.2 1.4-12.4 4.7-23.8 8.1-35.7.2-.8.5-1.6.9-2.3-5.6 30.9-2.8 43.6 3.6 81.1 5 30.2-16.7 58.8-24.8 69.2z"/><linearGradient id="o" gradientUnits="userSpaceOnUse" x1="433.034" y1="302.845" x2="523.92" y2="302.845"><stop offset="0" stop-color="#3e64ff"/><stop offset=".289" stop-color="#4247d1"/><stop offset=".605" stop-color="#452ba5"/><stop offset=".851" stop-color="#47198a"/><stop offset=".995" stop-color="#481380"/></linearGradient><path fill="url(#o)" d="M433 372.7c26.1-6.4 47.9-28.1 54.4-54.2 3-12 2.9-24.5 5.4-36.6 4.1-19.9 15.4-38.1 31-51-2.9 4.6-18.9 30.1-20.1 44.6-1.3 16 4.2 43.4-15.6 70.1-15.3 20.5-33.1 27.9-40.6 28.8-5.6.8-8.8-.1-14.5-1.7z"/><linearGradient id="p" gradientUnits="userSpaceOnUse" x1="403.945" y1="384.304" x2="547.068" y2="384.304"><stop offset="0" stop-color="#3e64ff"/><stop offset=".449" stop-color="#5430dc"/><stop offset=".804" stop-color="#620dc6"/><stop offset=".995" stop-color="#6800bd"/></linearGradient><path fill="url(#p)" d="M547.1 344.8s-7.6 1.7-24.6 17c-17 15.4-19.7 35.6-45.6 51.7-19.8 12.3-47.3 11.2-59.3 10-1.7-.7-3.4-1.4-5.1-2.2 6.4-2.2 12.5-5.2 18.2-9-9.1 0-18.1-1.7-26.6-4.9 28.5 3.6 59.9.5 81.5-18.4 11.7-10.2 19.7-24.3 32.4-33.2 8-5.7 17.4-9 27-11.3 1.3.1 2.1.3 2.1.3z"/><linearGradient id="q" gradientUnits="userSpaceOnUse" x1="889.392" y1="453.075" x2="933.12" y2="453.075"><stop offset="0" stop-color="#3e64ff"/><stop offset=".449" stop-color="#5430dc"/><stop offset=".804" stop-color="#620dc6"/><stop offset=".995" stop-color="#6800bd"/></linearGradient><path fill="url(#q)" d="M922.8 452.5c1.4-23 1.5-46.3-3.4-68.7-1.8-8-4.2-15.9-5.2-24.1-.1-1.1-.2-2.1-.3-3 4.3 10.5 19.2 49.8 19.1 94.3 0 39.2-26 79.6-43.7 98.4 14.4-17.6 24.5-38.8 29.2-61 2.6-11.8 3.6-23.8 4.3-35.9z"/><linearGradient id="r" gradientUnits="userSpaceOnUse" x1="486.507" y1="388.804" x2="639.869" y2="388.804"><stop offset="0" stop-color="#3e64ff"/><stop offset=".449" stop-color="#5430dc"/><stop offset=".804" stop-color="#620dc6"/><stop offset=".995" stop-color="#6800bd"/></linearGradient><path fill="url(#r)" d="M625.9 418.4c3.5 2 7.2 3.7 11 5-12.4-.2-33.6-.8-36.6-2.7-4.2-2.7-.4-5.1-.4-5.1 10.7 3.2 21.4-2.1 21.4-2.1-24.9-1.3-38.4-25.3-38.4-25.3.6 9.9-4 17.8-4 17.8-.3-20.7-10.3-29-10.3-29 7.8 31.2-8.9 43.3-8.9 43.3 5.8-32.2-10-48-10.5-48.4 10.5 26.9-2.8 43-2.8 43 3.6-23-9.4-36.3-9.7-36.7 10.3 25.3-5.6 42.5-5.6 42.5 2.1-15.6-6.6-27.9-6.6-27.9 4.1 38-19.5 36.8-19.5 36.8 5.3-7.3 6-17.9 6-17.9-6.4 20.7-24.5 13.5-24.5 13.5 11.5-7.7 30.9-36.5 44.6-55.1 1.2-1.6 2.5-3.1 3.8-4.6 3.8.8 8.5 4.4 7.7 8.6.8-4 1.6-8.1 2.4-12.1 6.5 1.5 12.1 6.4 14.5 12.6.8-4.9.5-10-.9-14.7 9.8 2.8 18.6 8.5 25.1 16.3-1.2-9.4-.2-19 2.9-27.9-1.6 16 3 32.6 12.8 45.3 9.8 12.8 24.5 21.7 40.3 24.3-4.3 1.5-9.2 1.2-13.8.5z"/><linearGradient id="s" gradientUnits="userSpaceOnUse" x1="307.073" y1="455.648" x2="412.694" y2="455.648"><stop offset="0" stop-color="#3e64ff"/><stop offset=".449" stop-color="#5430dc"/><stop offset=".804" stop-color="#620dc6"/><stop offset=".995" stop-color="#6800bd"/></linearGradient><path fill="url(#s)" d="M411.6 422.9c9.3 32.7-44.5 48.1-44.5 48.1l8.9-1.4c1.9 7.4 5.5 8.4 5.5 8.4-9.5.3-16.4-1.4-16.8-1.5 12 10.6 24.2 11.7 27.2 11.9-5.8-.1-48.5-1.1-68-3.7-20.9-2.7-22.5-22-4.6-14.7 17.9 7.4 28.4 3.2 28.4 3.2-19-6.3-10.7-26.4 12.2-35.9 2.8-1.2 5.5-2.4 7.9-3.7 1.2 2.1-.2 4.8 1.1 7 2.2 3.7 6.5 2.8 9.8 1.2 5.4-2.6 10.3-6.1 14.6-10.3-2.1 2.3-3.5 5.3-3.9 8.4.7 1.1 2.4.3 3.4-.5 6.2-5.4 10.8-12.8 18.1-16.3.3 0 .5-.1.7-.2z"/><linearGradient id="t" gradientUnits="userSpaceOnUse" x1="499.456" y1="489.182" x2="515.519" y2="489.182"><stop offset="0" stop-color="#3e64ff"/><stop offset=".449" stop-color="#5430dc"/><stop offset=".804" stop-color="#620dc6"/><stop offset=".995" stop-color="#6800bd"/></linearGradient><path fill="url(#t)" d="M515.5 473.7c-5 7-6.7 16.5-3.9 24.7-1.7-2.1-3.5-4.2-5.2-6.2-.2 4.6-2.1 9-5.1 12.4.6-4.7 1.6-16.4-1.8-23.3 0 0 7.7-1.4 16-7.6z"/><linearGradient id="u" gradientUnits="userSpaceOnUse" x1="404.378" y1="457.205" x2="519.258" y2="457.205"><stop offset="0" stop-color="#3e64ff"/><stop offset=".449" stop-color="#5430dc"/><stop offset=".804" stop-color="#620dc6"/><stop offset=".995" stop-color="#6800bd"/></linearGradient><path fill="url(#u)" d="M518.4 470.3l-.8.8c-4.5 2.4-14 6.6-24.9 6.1 0 0-5.8-4.8-13.5-4.4l9.1-6.1c-.5.1-13.3 3-23.6 6.1-10.5 3.2-22.7 0-22.7 0l4-3.9s-16.4 4.6-29.8-1c-13.4-5.5-12-7.8-12-7.8s18.7-6.3 30.5-22.8c0 0 .2 0 .5.1.6.7 1.3 1.6 2 2.6 3.6 5 8.8 8.4 14.7 10 8.1 2.2 16.6 1.4 24.9.6-2.2 1.8-4.4 3.6-6.5 5.5 4.8-.3 9.5-.6 14.3-.9 9.9-.6 20.1-1.2 29.3 2.3-2.7 1-5.3 2.6-7.4 4.6 3.8 2 7.6 3.9 11.4 5.9.4.2.9.5 1 .9.5.4 0 1-.5 1.4z"/><linearGradient id="v" gradientUnits="userSpaceOnUse" x1="253.799" y1="490.301" x2="281.726" y2="490.301"><stop offset="0" stop-color="#3e64ff"/><stop offset=".449" stop-color="#5430dc"/><stop offset=".804" stop-color="#620dc6"/><stop offset=".995" stop-color="#6800bd"/></linearGradient><path fill="url(#v)" d="M281.7 509.1c-5-6.5-7.3-15.4-12.9-21.7-.7 1.8-1.3 3.6-2 5.3-.7-1.8-1.7-3.5-2.9-4.9-3.4 2-6.7 3.9-10.1 5.9 2.4-2.5 4.9-4.9 7.3-7.4 2.4-2.4 4.8-4.9 6.2-7.9.8-1.6.6-4.7 1-6.9 6.1 4.5 13.4 9 13.4 9-5.5 4.7-8 13.2-2.5 22.3 1.5 2.5 2.2 4.5 2.5 6.3z"/><linearGradient id="w" gradientUnits="userSpaceOnUse" x1="601.36" y1="386.743" x2="886.853" y2="386.743"><stop offset="0" stop-color="#3e64ff"/><stop offset=".449" stop-color="#5430dc"/><stop offset=".804" stop-color="#620dc6"/><stop offset=".995" stop-color="#6800bd"/></linearGradient><path fill="url(#w)" d="M877.4 456.8s-16.1-54.8-83.7-67.5c-67.2-12.5-123.6 10.6-124.3 10.8 18.3-36.6 74.2-50.4 74.2-50.4-45.5 5.6-70.1 25.6-70.1 25.6 2.1-7.2-.1-14-.1-14s-1.4 6.6-16.7 17.9c-15.3 11.3-40.1 2.4-49.5-7.7-5-5.4-6-13.3-5.9-19.4l7.4 4s8.7 6.1 13.8 7c10.1 1.8 20.6-1.7 28.7-7.9 8.2-6.2 14.2-14.8 18.9-23.8-.2 4.8-.4 9.5-.6 14.3 9.4-7.1 16-17.7 18.4-29.2 1.4 10.3 1.2 20.9-.6 31.1 3.1-5.3 8.6-8.7 14-11.7 27.4-14.8 59.3-20.9 90.2-17.3-11.3 3.3-22 8.1-31.9 14.4 38.3-.7 76.7 10.4 108.6 31.5-26.1-8.7-54.2-11-81.3-6.7-14-.4-23.1 1.2-23.1 1.2 54.9-4.1 115.9 32.6 121.5 55.9 5.8 23.5-7.9 41.9-7.9 41.9z"/><linearGradient id="x" gradientUnits="userSpaceOnUse" x1="280.502" y1="252.33" x2="306.473" y2="252.33"><stop offset="0" stop-color="#3e64ff"/><stop offset=".289" stop-color="#4247d1"/><stop offset=".605" stop-color="#452ba5"/><stop offset=".851" stop-color="#47198a"/><stop offset=".995" stop-color="#481380"/></linearGradient><path fill="url(#x)" d="M306.5 299.5c-6.3 2.4-12.3 5-18 7.6-1-.9-1.4-2.4-1.7-3.7-1-4.6-1.4-9.4-1.2-14.1.5-9.4 3.5-18.8 1.5-28-.9-4.2-2.9-8.2-4.3-12.3-5.1-15-1.4-32.6 9.2-44.4 2.2-2.4 4.7-4.9 7.3-7.1-15.1 20.6-11.9 33.6-11.9 33.6 1.6 13.5 20.7 36.2 16.5 48.6-4.1 12.4-1.7 17-1.7 17s1.9 1 4.3 2.8z"/><linearGradient id="y" gradientUnits="userSpaceOnUse" x1="213.315" y1="281.271" x2="257.802" y2="281.271"><stop offset="0" stop-color="#3e64ff"/><stop offset=".289" stop-color="#4247d1"/><stop offset=".605" stop-color="#452ba5"/><stop offset=".851" stop-color="#47198a"/><stop offset=".995" stop-color="#481380"/></linearGradient><path fill="url(#y)" d="M257.8 324.1c-6.7 4.5-12.8 9.1-18.1 13.7-1.3-1.5-1.6-3.8-1.8-5.8-.9-9.5-2.4-19.2-7.6-27.2-4-6.1-10-10.8-13.2-17.4-1-2-1.7-4.2-2.2-6.4-3.4-13.4-1.3-28 5.7-39.9 1.1-1.8 8.4-12.2 13.2-16.3-14.8 30.7-14.6 51.7-2.5 65.6 12.1 13.9 19.2 18.7 24.4 28.3.9 1.6 1.6 3.4 2.1 5.4z"/><linearGradient id="z" gradientUnits="userSpaceOnUse" x1="175.023" y1="364.004" x2="204.981" y2="364.004"><stop offset="0" stop-color="#3e64ff"/><stop offset=".289" stop-color="#4247d1"/><stop offset=".605" stop-color="#452ba5"/><stop offset=".851" stop-color="#47198a"/><stop offset=".995" stop-color="#481380"/></linearGradient><path fill="url(#z)" d="M205 380.7c-1.6 3.1-3 6.1-4.1 9-.2 0-.4-.1-.6-.2-4.7-1.7-9.7-6.5-12.5-10.7-4.9-7.1-6-15.9-7.5-24.4-1-5.4-2.3-11-5-15.7-.1-.3-.2-.5-.2-.5.3.2 6.8 6.1 9.9 20.8 3 14.8 12.5 15.7 20 21.7z"/><path fill="#5D00BF" d="M666.3 477.1c-3-2.4-6.5-4.7-10.2-3.9-1.1.2-2.1.7-3.1 1.2-7 3.3-13.9 6.5-20.9 9.8 9.3-7.8 19.6-13 19.6-13l-11.8-43.3 4.8-3.5c1.5.2 2.8.9 3.9 2.5 5.4 8.7 10.1 18.1 17.6 25-3.8-2.2-7.4-4.7-10.8-7.6 1.1 5.3 2.3 10.7 3.4 16 1.3 6.2 2.9 12.8 7.5 16.8z"/><linearGradient id="A" gradientUnits="userSpaceOnUse" x1="218.113" y1="435.864" x2="366.999" y2="435.864"><stop offset="0" stop-color="#3e64ff"/><stop offset=".449" stop-color="#5430dc"/><stop offset=".804" stop-color="#620dc6"/><stop offset=".995" stop-color="#6800bd"/></linearGradient><path fill="url(#A)" d="M367 416.6c-4.7 4.6-11 7.7-17.6 8.3-7.1.7-14.7-1.1-21.3 1.6-1.8.8-3.5 1.9-5.4 2.6-5.6 2.1-11.9.4-17.8 1-7 .7-13.3 4.4-20.2 5.5-9.2 1.5-18.5-1.7-27.8-1.6-3.4 0-6.7.5-10 1.4-2.7.7-5.6 2-6.8 4.6-1.5 3.3.6 7.1 3.4 9.3 6.5 5.1 13.7 3.4 20.8 3.4-31.7 8-42.4-6.8-44.7-11.8-2.4-5.1-2-8.7 3.9-10.7 5.9-1.9 10.3 2.1 22.1 0s27.4-2.9 38.3-1.9c11 .9 22.1-2.1 35.5-6.7s26.6.8 37.7-1.2c2.5-.4 6-1.9 9.9-3.8z"/><linearGradient id="B" gradientUnits="userSpaceOnUse" x1="176.437" y1="377.183" x2="197.078" y2="377.183"><stop offset="0" stop-color="#2f6bff"/><stop offset="1" stop-color="#ff71ff"/></linearGradient><path fill="url(#B)" d="M194.2 398.8c.8.7 1.8 1.2 2.9 1.6-.8 2.8-1.4 5.4-1.9 7.6-3.4-2.2-6.7-4.8-9.6-7.6-9.4-9-10.1-21-8.6-38.4.6-6.9.4-12.1-.1-15.8 2 9.2 2.4 18.8 4.3 28.1 1.9 9.1 5.7 18.5 13 24.5z"/><linearGradient id="C" gradientUnits="userSpaceOnUse" x1="205.326" y1="298.607" x2="227.31" y2="298.607"><stop offset="0" stop-color="#2f6bff"/><stop offset="1" stop-color="#ff71ff"/></linearGradient><path fill="url(#C)" d="M225.6 328c.9 7.1 1.8 14.4 1.6 21.6-3.2 3.3-6 6.7-8.6 9.9-1.8-6-4.8-18.3-4.4-35.2.6-24.5-8.1-17.7-9-50.1-.4-15.9 6.4-28.1 13.5-36.4-1.7 2.7-3.3 5.5-4.7 8.4-7 14.7-8.5 32.6-1.1 47 2.3 4.5 5.4 8.6 7.6 13.2 3.2 6.7 4.2 14.2 5.1 21.6z"/><linearGradient id="D" gradientUnits="userSpaceOnUse" x1="270.358" y1="258.625" x2="290.155" y2="258.625"><stop offset="0" stop-color="#2f6bff"/><stop offset="1" stop-color="#ff71ff"/></linearGradient><path fill="url(#D)" d="M280.2 287.5c-.1 7.4 2.1 15.1 2.5 22.4-2.7 1.3-5.3 2.7-7.9 4.1-.6-1.1-1-2.1-1.3-3.2-2.9-12.1-.9-15.6 1.6-29.3 2.5-13.7-7.4-10.5-4.1-42 2-18.7 11.6-30.1 19.1-36.2-11.7 13.6-17 32.7-13.2 50.2 1.4 6.4 3.9 12.7 4.2 19.3.2 4.9-.8 9.8-.9 14.7z"/><linearGradient id="E" gradientUnits="userSpaceOnUse" x1="516.614" y1="273.325" x2="898.39" y2="273.325"><stop offset="0" stop-color="#2f6bff"/><stop offset="1" stop-color="#ff71ff"/></linearGradient><path fill="url(#E)" d="M896.5 358.1c-.7-2-1.5-4-2.3-5.9-12-29.9-31.6-57.6-57.8-75.5-27.2-18.6-59.1-28.6-90.8-37.6 16.3-2 33-.9 48.9 3.4-49.7-22.1-105.5-30.1-159.4-23.1-28.9 3.8-57.8 12.1-81.6 29.1-15.9 11.3-29.2 26.9-36.9 44.6.3-2.8.7-5.8 1-8.8.4-3.8.9-7.7 1.3-11.7 2.5-24.2 25.4-52.9 25.4-52.9l-21.7.5s148.1-65.7 273.4-7.6c119.8 55.6 102.3 138.5 100.5 145.5z"/><linearGradient id="F" gradientUnits="userSpaceOnUse" x1="866.017" y1="459.83" x2="915.51" y2="459.83"><stop offset="0" stop-color="#2f6bff"/><stop offset="1" stop-color="#ff71ff"/></linearGradient><path fill="url(#F)" d="M914.8 406.1c-.8 17-3.3 34-7.6 50.5-2.4 9.1-5.3 18.1-8.7 26.9-3.1 8-6.6 15.9-8.5 24.3-1.3 5.9-1.7 11.9-2 17.9-.2 3.5-.3 7 .8 10.3 1 3.1 3.3 6 6.4 6.9-2 2.4-3.9 4.6-5.8 6.5-5.9 6.2-10.8 10.1-13.6 10.7-11.1 2.5-15.6-.3 2-52.8 17.2-51.5 33.3-65 34.9-148.4 3.9 14.5 2.8 32.7 2.1 47.2z"/><linearGradient id="G" gradientUnits="userSpaceOnUse" x1="292.007" y1="375.88" x2="376.791" y2="375.88"><stop offset="0" stop-color="#3e64ff"/><stop offset=".289" stop-color="#4247d1"/><stop offset=".605" stop-color="#452ba5"/><stop offset=".851" stop-color="#47198a"/><stop offset=".995" stop-color="#481380"/></linearGradient><path fill="url(#G)" d="M358.9 371.9c1.9 10.8-3.1 22.4-12.3 28.5 1.2-3.2 2-6.6 2.3-10.1-.5 2.9-3 5.1-5.7 6.5-3.2 1.7-6.7 2.7-10.3 2.9.8-.1 1.6-.2 2.4-.5 12.9-3.4 15.1-17.4 15.1-17.4 1.2 6.3.3 10.3.3 10.6 7.5-10.7.5-26.1.5-26.1 5.6.6 12.5.9 12.5.9s-9.4-9.9-13.9-10.3c-4.5-.4-29.2 12.1-41.9 22.4-7.2 5.9-12.7 6.5-16.1 5.9v-.1c.1-1.6 4.8-2.8 5.9-3.4 9.3-4.9 16.8-12.4 25-18.7 4.7-3.6 9.6-6.9 15.1-9.1l-4.5 4.5c9.2-6.3 21-8.7 31.9-6.3-2.2.8-4.3 1.5-6.5 2.3 8.3 4.8 13.7 13.4 17.8 22.1-4.8-3.4-11.4-4-17.6-4.6z"/><path fill="#5D00BF" d="M233 395.6c.8-.2 1.5-.4 2.1-.7-5.1 4.9-13.7 5.7-19.5 1.7.9 1.3 1.8 2.6 2.6 3.8-3.4-1.4-6.1-4.4-7.3-7.8 1.9-3.2 4-5.5 4.1-5.7-.1.3-2.5 5.3 4 9.8 6.7 4.6 14-1.1 14-1.1z"/><linearGradient id="H" gradientUnits="userSpaceOnUse" x1="227.617" y1="379.866" x2="243.667" y2="379.866"><stop offset="0" stop-color="#3e64ff"/><stop offset=".289" stop-color="#4247d1"/><stop offset=".605" stop-color="#452ba5"/><stop offset=".851" stop-color="#47198a"/><stop offset=".995" stop-color="#481380"/></linearGradient><path fill="url(#H)" d="M243.7 390.4c-7.7.8-9.7-6.3-11.4-11.6-1.6-4.9-4.1-8.3-4.5-8.9l-.1-.1c.1-.1.2-.3.3-.4 2.5 2.6 4.8 5.4 6.8 8.3.1-.8.3-1.6.4-2.4.3 6.1 3.6 11.5 8.5 15.1z"/><path fill="#4086E8" d="M244.2 390.8h-.1c.1 0 .1-.1.1 0 0-.1 0 0 0 0z"/><linearGradient id="I" gradientUnits="userSpaceOnUse" x1="206.828" y1="410.751" x2="322.091" y2="410.751"><stop offset="0" stop-color="#3e64ff"/><stop offset=".449" stop-color="#5430dc"/><stop offset=".804" stop-color="#620dc6"/><stop offset=".995" stop-color="#6800bd"/></linearGradient><path fill="url(#I)" d="M322.1 414.7c-.8.1-1.6.2-2.4.4-7.6 1.9-15.7 8.7-38.5 7-22.9-1.7-31.5 2.9-42.6 1.4-11.2-1.5-16.7 1.7-22.8 2.8-6.1 1.1-8.4-13.1-8.9-22.2-.2-3 .7-6.2 2-9.1-.2 3.8.4 7.4 2.6 10.7 2.8 4.2 7.7 6.8 12.8 6.9 4.4.1 8.9-1.7 13.1-.3 2 .7 3.8 2.1 5.7 3.1 3.5 1.9 7.6 2.5 11.5 2.7 12 .5 24.2-2.5 36 .1 2.3.5 4.6 1.2 7 1.4 5.6.3 10.8-2.5 16.2-3.8 2.7-.7 5.5-1 8.3-1.1z"/><path fill="#5D00BF" d="M719.8 277c60.2 11.2 103.7 33.7 129.7 52.4-138.4-75.9-242.7-54.8-296.1-32.8h-.1C528.7 306.7 515 317 513.7 318c.2-.1.3-.3.5-.4.1-.1.2-.2.3-.2C543.3 293 569 284 569 284l-19.4-5.5c57.7-10.5 108-10.5 150.7-4.7 6.7 1 13.2 2 19.5 3.2z"/><path fill="#62060A" d="M896.5 358.1c-.4-.3-.8-.5-1.2-.8-1.2-1.4-2.4-2.9-3.6-4.3-.5-.6-1-1.1-1.5-1.7 4 4.1 6.1 6.6 6.3 6.8z"/><linearGradient id="J" gradientUnits="userSpaceOnUse" x1="302.294" y1="268.519" x2="448.609" y2="268.519"><stop offset="0" stop-color="#2f6bff"/><stop offset="1" stop-color="#ff71ff"/></linearGradient><path fill="url(#J)" d="M448.6 200.6c-7.5 15-10.1 32.4-11 49.3-.9 16.6-.7 33.9-7.9 48.9-6.1 12.7-17.3 22.6-30.1 28.7-12.8 6.1-27 8.6-41.1 8.9 2.5-2.8 5-5.6 7.5-8.5.9-1 1.9-2.2 2-3.6.2-1.9-1.4-3.6-3.2-4.3-1.8-.6-3.8-.4-5.7-.2-19.4 2.4-38.4 7.7-56.8 14.4 2.2-.8 4.8-4.1 6.8-5.6 2.3-1.8 4.7-3.5 7.1-5.1.5-.3.9-.6 1.4-.9 2.9-.8 33.6-9.4 50.9-10.8 18.1-1.5 59.1 19.5 64.6-45.3 3.2-38.1 10.2-56.9 15.5-65.9z"/><linearGradient id="K" gradientUnits="userSpaceOnUse" x1="229.737" y1="322.78" x2="415.962" y2="322.78"><stop offset="0" stop-color="#2f6bff"/><stop offset="1" stop-color="#ff71ff"/></linearGradient><path fill="url(#K)" d="M416 278.2s-8.9 23.7-38.5 23.8c-23.6.1-47.7 13.2-56.5 18.5-2.1 1.3-3.3 2.1-3.5 2.2 0 0 .1 0 .2-.1.7-.2 3-.9 6.4-1.7-7.8 3.3-15.1 7.6-21.3 13.3 1.7-2.9 2.6-6.2 2.7-9.6 0-.8 0-1.7-.4-2.4-.5-.8-1.3-1.2-2.2-1.4-3.8-1.1-7.7.8-11.1 2.7-14.8 8.3-29.2 17.4-42.9 27.3-4.5 3.3-9 6.6-13.2 10.5-1 .9-3.6 4.2-5.9 6C268.7 324.2 327.2 299 359 294c32.3-5 57-15.8 57-15.8z"/><linearGradient id="L" gradientUnits="userSpaceOnUse" x1="393.853" y1="291.393" x2="524.317" y2="291.393"><stop offset="0" stop-color="#2f6bff"/><stop offset="1" stop-color="#ff71ff"/></linearGradient><path fill="url(#L)" d="M524.3 230.3c-1.3.3-22.9 5.2-36.5 40.8-14 36.8-22 58.8-38.4 72.2s-55.5 8.5-55.5 8.5 26 .5 39.9-7.3c3.3-1.8 6.8-4.9 10.2-8.7 11-10.5 28.1-30.5 36.6-59.1 12.9-43.2 42.2-46.3 43.7-46.4z"/><linearGradient id="M" gradientUnits="userSpaceOnUse" x1="405.223" y1="365.418" x2="545.33" y2="365.418"><stop offset="0" stop-color="#2f6bff"/><stop offset="1" stop-color="#ff71ff"/></linearGradient><path fill="url(#M)" d="M545.3 344.5c-4.5-.5-18.1 0-42.2 18.4-30.3 23.1-62.3 34.9-97.9 11.1.5.2 14.1 5.5 28.8 5l-9.5-6.9 22.6 2.3c24.7 4.8 41.5-11.2 61.6-22.7 15.9-9.1 30.6-8.1 36.1-7.2.2-.1.4 0 .5 0z"/><linearGradient id="N" gradientUnits="userSpaceOnUse" x1="509.923" y1="310.801" x2="732.6" y2="310.801"><stop offset="0" stop-color="#2f6bff"/><stop offset="1" stop-color="#ff71ff"/></linearGradient><path fill="url(#N)" d="M732.6 291.7c-48.8-8-99.7-2.2-145.7 16-7.2 2.8-14.8 6.4-18.5 13.2-1.9 3.3-2.5 7.2-2 11 .3 2.7 3.5 7 2.9 9.5 0 .1 0 .1-.1.2-22.4-10.9-47.7-6.3-56.2-4.3-1.8.4-2.9.8-3 .8 62.1-56.4 161.7-52.9 163.8-52.8-12.4-1.4-24.1-2.1-35-2.2-32.3-.3-58.1 4.7-77.6 10.9 4.3-1.8 8.9-3.1 13.4-4.3 51.5-13.5 106.7-12.8 158 2z"/><circle fill="#240A40" cx="246.3" cy="406.8" r="2.6"/><circle fill="#240A40" cx="277.1" cy="406.8" r="2.6"/><path fill="#240A40" d="M367 498.1c1 2-54.7 24.3-56.5 23.9-1.8-.5-21.4-8.3-26.5-17.4-5-9.1-5.9-16 .5-22.8 6.4-6.8 14.1-12.8 14.1-12.8l3.7 11.4 64.7 17.7z"/></svg>